{"title":"Dyland Y Lenny Ft. Pitbull And Beatriz Luengo - Sin Ti (h264)","uid":8155918,"size":95552445,"categoryP":"video","categoryS":"music_videos","magnet":"?xt=urn:btih:439386afd58e50c208bd2e06d8abd74bb628fd14&amp;dn=Dyland+Y+Lenny+Ft.+Pitbull+And+Beatriz+Luengo+-+Sin+Ti+%28h264%29&amp;tr=udp%3A%2F%2Ftracker.openbittorrent.com%3A80&amp;tr=udp%3A%2F%2Fopen.demonii.com%3A1337&amp;tr=udp%3A%2F%2Ftracker.coppersurfer.tk%3A6969&amp;tr=udp%3A%2F%2Fexodus.desync.com%3A6969","seeders":1,"leechers":1,"uploader":"MusicVideos-HQ","files":1,"time":1361167081,"description":"General\n\nFormat                         : MPEG-4\nFormat profile                 : Base Media\nCodec ID                       : isom\nFile size                      : 91.1 MiB\nDuration                       : 4mn 38s\nOverall bit rate mode          : Variable\nOverall bit rate               : 2 740 Kbps\nEncoded date                   : UTC 2013-02-12 18:50:09\nTagged date                    : UTC 2013-02-12 18:50:09\n\nVideo\nID                             : 1\nFormat                         : AVC\nFormat/Info                    : Advanced Video Codec\nFormat profile                 : &lt;a class=&quot;__cf_email__&quot; href=&quot;/cdn-cgi/l/email-protection&quot; data-cfemail=&quot;fcb4959b94bcb0cfd2cc&quot;&gt;[email&amp;#160;protected]&lt;/a&gt;&lt;script cf-hash='f9e31' type=&quot;text/javascript&quot;&gt;\n/* &lt;![CDATA[ */!function(){try{var t=&quot;currentScript&quot;in document?document.currentScript:function(){for(var t=document.getElementsByTagName(&quot;script&quot;),e=t.length;e--;)if(t[e].getAttribute(&quot;cf-hash&quot;))return t[e]}();if(t&amp;&amp;t.previousSibling){var e,r,n,i,c=t.previousSibling,a=c.getAttribute(&quot;data-cfemail&quot;);if(a){for(e=&quot;&quot;,r=parseInt(a.substr(0,2),16),n=2;a.length-n;n+=2)i=parseInt(a.substr(n,2),16)^r,e+=String.fromCharCode(i);e=document.createTextNode(e),c.parentNode.replaceChild(e,c)}}}catch(u){}}();/* ]]&gt; */&lt;/script&gt;\nFormat settings, CABAC         : Yes\nFormat settings, ReFrames      : 2 frames\nCodec ID                       : avc1\nCodec ID/Info                  : Advanced Video Coding\nDuration                       : 4mn 38s\nBit rate                       : 2 545 Kbps\nMaximum bit rate               : 7 537 Kbps\nWidth                          : 720 pixels\nHeight                         : 480 pixels\nDisplay aspect ratio           : 16:9\nOriginal display aspect ratio  : 16:9\nFrame rate mode                : Constant\nFrame rate                     : 23.976 fps\nStandard                       : NTSC\nColor space                    : YUV\nChroma subsampling             : 4:2:0\nBit depth                      : 8 bits\nScan type                      : Progressive\nBits/(Pixel*Frame)             : 0.307\nStream size                    : 84.6 MiB (93%)\n\n\nAudio\nID                             : 2\nFormat                         : AAC\nFormat/Info                    : Advanced Audio Codec\nFormat profile                 : LC\nCodec ID                       : 40\nDuration                       : 4mn 38s\nBit rate mode                  : Variable\nBit rate                       : 192 Kbps\nMaximum bit rate               : 224 Kbps\nChannel(s)                     : 2 channels\nChannel positions              : Front: L R\nSampling rate                  : 44.1 KHz\nCompression mode               : Lossy\nStream size                    : 6.39 MiB (7%)","torrent":{"xt":"urn:btih:439386afd58e50c208bd2e06d8abd74bb628fd14","amp;dn":"Dyland+Y+Lenny+Ft.+Pitbull+And+Beatriz+Luengo+-+Sin+Ti+%28h264%29","amp;tr":["udp%3A%2F%2Ftracker.openbittorrent.com%3A80","udp%3A%2F%2Fopen.demonii.com%3A1337","udp%3A%2F%2Ftracker.coppersurfer.tk%3A6969","udp%3A%2F%2Fexodus.desync.com%3A6969"],"infoHash":"439386afd58e50c208bd2e06d8abd74bb628fd14","infoHashBuffer":{"type":"Buffer","data":[67,147,134,175,213,142,80,194,8,189,46,6,216,171,215,75,182,40,253,20]},"announce":[],"urlList":[]}}